<svg width="30" height="30" viewBox="0 0 30 30" fill="none" xmlns="http://www.w3.org/2000/svg">
<path d="M18.6352 11.8644C18.4441 11.5838 18.3401 11.2126 18.345 10.8292C18.35 10.4457 18.4635 10.0798 18.6617 9.80856C18.8599 9.53735 19.1273 9.382 19.4075 9.37523C19.6878 9.36846 19.959 9.51081 20.1641 9.77229L25.9336 17.667C26.1362 17.9446 26.25 18.3208 26.25 18.7131C26.25 19.1053 26.1362 19.4816 25.9336 19.7591L20.1641 27.6539C20.0651 27.7993 19.9456 27.916 19.8129 27.9969C19.6802 28.0778 19.537 28.1213 19.3917 28.1248C19.2465 28.1283 19.1022 28.0917 18.9675 28.0173C18.8328 27.9428 18.7104 27.832 18.6077 27.6914C18.505 27.5509 18.424 27.3834 18.3696 27.1991C18.3152 27.0148 18.2885 26.8174 18.291 26.6186C18.2936 26.4199 18.3254 26.2239 18.3845 26.0423C18.4436 25.8607 18.5289 25.6973 18.6352 25.5618L22.5585 20.1933H8.58179C8.29488 20.1933 8.01972 20.0374 7.81685 19.7598C7.61397 19.4822 7.5 19.1057 7.5 18.7131C7.5 18.3205 7.61397 17.944 7.81685 17.6664C8.01972 17.3888 8.29488 17.2328 8.58179 17.2328H22.5585L18.6352 11.8644Z" fill="#26374D"/>
</svg>
