<svg width="40" height="40" viewBox="0 0 40 40" fill="none" xmlns="http://www.w3.org/2000/svg">
<g clip-path="url(#clip0_81_216)">
<path d="M4.87191 24.3153C5.24941 25.7346 7.32269 26.4152 9.50253 25.8353C11.6824 25.2555 12.1502 23.8991 11.7727 22.4797C11.3952 21.0603 10.3153 20.1156 8.13534 20.6954C5.95542 21.2753 4.49441 22.896 4.87191 24.3153Z" fill="#FDC8A6"/>
<path d="M13.0308 39.4606C12.1426 39.4606 11.4226 38.7406 11.4226 37.8524V34.8934C11.4226 34.0052 12.1426 33.2852 13.0308 33.2852C13.919 33.2852 14.639 34.0052 14.639 34.8934V37.8524C14.639 38.7406 13.919 39.4606 13.0308 39.4606ZM33.4229 37.8524V34.8934C33.4229 34.0052 32.7029 33.2852 31.8147 33.2852C30.9265 33.2852 30.2065 34.0052 30.2065 34.8934V37.8524C30.2065 38.7406 30.9265 39.4606 31.8147 39.4606C32.7029 39.4606 33.4229 38.7406 33.4229 37.8524ZM35.5916 19.8405C35.5916 19.298 35.1518 18.8583 34.6094 18.8583H32.7451C32.2027 18.8583 31.7629 19.298 31.7629 19.8405C31.7629 20.3829 32.2027 20.8227 32.7451 20.8227H34.6094C35.1518 20.8227 35.5916 20.3829 35.5916 19.8405Z" fill="#8299A3"/>
<path d="M37.5504 23.4429H35.8316V5.91614C35.8316 2.84793 33.3354 0.351685 30.2671 0.351685C27.1988 0.351685 24.7027 2.84786 24.7027 5.91614C24.7027 5.94286 24.7045 5.96911 24.7066 5.9952C22.7195 6.32208 21.0684 7.64434 20.2822 9.43379C19.9971 10.0827 20.4638 10.8118 21.1725 10.8118H30.1627C30.8715 10.8118 31.3381 10.0827 31.0531 9.43387C30.267 7.64434 28.6158 6.322 26.6286 5.9952C26.6307 5.96903 26.6326 5.94286 26.6326 5.91614C26.6326 3.91208 28.2631 2.28161 30.2671 2.28161C32.2712 2.28161 33.9016 3.91208 33.9016 5.91614V23.4429H1.58032C1.58032 31.4011 8.03173 37.8525 15.9899 37.8525H31.789C34.7513 37.8525 37.2577 35.6629 37.6553 32.7274L38.7302 24.7935C38.827 24.0788 38.2715 23.4429 37.5504 23.4429Z" fill="#C3CCD1"/>
<path d="M38.5428 26.0799C38.527 26.0799 38.5111 26.0796 38.4951 26.079L1.40481 24.7285C0.694736 24.7026 0.140048 24.1061 0.165908 23.3959C0.191767 22.6858 0.788408 22.13 1.49841 22.1571L38.5887 23.5075C39.2988 23.5334 39.8534 24.13 39.8275 24.8401C39.8024 25.5343 39.2317 26.0799 38.5428 26.0799Z" fill="#8299A3"/>
<path d="M20.949 22.2099L20.8812 22.1238C20.7299 21.9318 20.5722 21.7456 20.416 21.5581C20.1168 21.1987 19.5938 21.1371 19.2198 21.4056C19.1884 21.395 19.1564 21.3861 19.1241 21.3788C18.6808 21.2818 18.2424 21.5285 18.0863 21.9406C18.0453 22.048 18.006 22.156 17.9684 22.2646C17.9301 22.3728 17.893 22.4816 17.8574 22.5907C17.8217 22.6998 17.7843 22.8084 17.7509 22.9181L17.6481 23.2467C17.599 23.404 17.5919 23.5715 17.6278 23.7323L13.3505 26.2607L13.0252 25.7765L12.0237 24.2985C11.6877 23.8047 11.3493 23.3125 11.0085 22.8219C10.8362 22.5737 10.6623 22.3266 10.4867 22.0806C10.396 21.9536 10.3042 21.8274 10.2114 21.7019L10.1382 21.604L10.0587 21.5006L10.012 21.4411L9.94423 21.3593C9.889 21.2937 9.87564 21.2807 9.84869 21.2503C9.83517 21.235 9.82048 21.2216 9.80642 21.2071L9.82103 21.2031L9.50384 20.0108C10.5983 19.5622 11.3585 18.9251 11.3906 17.859C11.3938 17.7536 11.2978 17.6689 11.1931 17.6811C11.0069 17.7028 10.7336 17.7248 10.5881 17.6903C10.5573 17.6831 10.5283 17.6699 10.5027 17.6514C10.4771 17.6329 10.4554 17.6096 10.4388 17.5828C10.4222 17.5559 10.411 17.526 10.406 17.4949C10.401 17.4637 10.4021 17.4318 10.4094 17.4011C10.4392 17.2726 10.5679 17.1923 10.6986 17.2225C10.8717 17.2634 11.3263 17.1667 11.2851 17.0116L11.0767 16.1606C11.5874 16.0075 11.8734 15.8141 11.5025 15.3808C11.1729 14.9958 10.5744 14.0579 10.5391 13.9653L10.5374 13.9585C10.5374 13.9584 10.5373 13.9578 10.5374 13.9578L10.5373 13.958L10.4087 13.4328C9.82189 11.2266 7.90743 10.518 5.70126 11.1048C3.49431 11.6918 2.18165 13.9565 2.76845 16.1626C2.76845 16.1626 3.79744 20.0287 6.56587 20.5267L6.84837 21.5887C6.58548 21.6771 6.45119 21.785 6.66892 22.0313C7.73423 24.4909 11.8981 28.6935 11.8981 28.6935L12.0184 28.845C12.4245 29.3567 13.1686 29.4423 13.6803 29.0361L13.6916 29.027L19.0231 24.6878C19.0843 24.671 19.1428 24.6455 19.1967 24.612C19.3454 24.5195 19.4883 24.421 19.6288 24.3199C19.6994 24.2701 19.7691 24.2189 19.8378 24.1665C19.9065 24.1144 19.9767 24.0638 20.0442 24.0103C20.3154 23.7994 20.5808 23.5809 20.8398 23.355C21.177 23.0617 21.2219 22.5574 20.949 22.2099Z" fill="#FDC8A6"/>
<path d="M27.8635 7.54465H23.4718C23.2729 7.54464 23.0787 7.48426 22.9149 7.37148C22.7511 7.2587 22.6253 7.09885 22.5543 6.91306C22.4833 6.72727 22.4704 6.52431 22.5173 6.33102C22.5641 6.13773 22.6686 5.96323 22.8168 5.83059C23.6004 5.12863 24.6156 4.7407 25.6676 4.74121C26.7197 4.7407 27.7349 5.12863 28.5185 5.83059C28.6668 5.96319 28.7713 6.1377 28.8182 6.33102C28.8651 6.52433 28.8522 6.72734 28.7812 6.91316C28.7102 7.09898 28.5845 7.25886 28.4206 7.37163C28.2567 7.48439 28.0624 7.54473 27.8635 7.54465Z" fill="#8299A3"/>
<path d="M9.15774 14.7144C9.12712 14.5403 9.23235 14.3689 9.40595 14.3228C9.58001 14.2764 9.75649 14.3729 9.81665 14.5392L9.82063 14.5381L9.94493 15.0053L9.94353 15.0057L9.94376 15.0066C9.96727 15.0948 9.95479 15.1887 9.90907 15.2677C9.86334 15.3467 9.78811 15.4042 9.69993 15.4278C9.61178 15.4512 9.51793 15.4387 9.43902 15.3929C9.36011 15.3471 9.30261 15.2719 9.27915 15.1838C9.27915 15.1838 9.2797 15.183 9.27954 15.1823L9.27884 15.1825L9.15454 14.7153L9.15774 14.7144Z" fill="#212D37"/>
<path d="M9.56375 14.6258C9.55993 14.6048 9.56415 14.5831 9.57558 14.565C9.58702 14.5469 9.60483 14.5338 9.62547 14.5283C9.64617 14.5229 9.66814 14.5254 9.68706 14.5354C9.70599 14.5454 9.7205 14.5621 9.72774 14.5822L9.7286 14.582L9.75961 14.6984L9.75946 14.6985L9.75954 14.6988C9.76537 14.7208 9.76224 14.7442 9.75084 14.7638C9.73944 14.7835 9.72071 14.7978 9.69875 14.8036C9.6768 14.8094 9.65343 14.8063 9.63378 14.7949C9.61414 14.7835 9.59982 14.7648 9.59399 14.7428L9.59391 14.7425L9.5629 14.626L9.56375 14.6258Z" fill="white"/>
<path d="M9.76845 13.4629L9.71595 13.4707C9.68321 13.476 9.63743 13.4841 9.58282 13.4956C9.52821 13.5069 9.46493 13.5221 9.39743 13.5405C9.33001 13.5599 9.25829 13.5817 9.18735 13.6094C9.11626 13.6357 9.04587 13.6682 8.9811 13.7039C8.94845 13.7199 8.91798 13.7423 8.88892 13.7605C8.8597 13.7783 8.83384 13.8028 8.80946 13.8216C8.78478 13.8399 8.76517 13.8653 8.74673 13.8835C8.72798 13.9017 8.71399 13.9214 8.70306 13.9385L8.6686 13.9907C8.65169 14.0162 8.6452 14.0473 8.65046 14.0774C8.65573 14.1076 8.67234 14.1346 8.6969 14.1529C8.72145 14.1711 8.75207 14.1793 8.78247 14.1757C8.81287 14.1721 8.84073 14.157 8.86032 14.1335L8.8779 14.1124L8.90001 14.086C8.9078 14.0749 8.91726 14.065 8.92806 14.0567C8.94157 14.0464 8.95173 14.0323 8.97118 14.021C8.99009 14.0096 9.00657 13.9947 9.03048 13.9832C9.05407 13.9715 9.0761 13.9569 9.10407 13.9463C9.16109 13.9209 9.21992 13.8998 9.28009 13.8832C9.3422 13.8646 9.40704 13.8507 9.46782 13.8386C9.52372 13.8282 9.57992 13.8195 9.63634 13.8124C9.69059 13.8057 9.74504 13.8007 9.79962 13.7975L9.80399 13.7972C9.82673 13.7959 9.84896 13.79 9.86933 13.7798C9.88971 13.7696 9.90781 13.7554 9.92254 13.738C9.93726 13.7207 9.94831 13.7005 9.95501 13.6787C9.96171 13.657 9.96393 13.6341 9.96152 13.6114C9.95911 13.5888 9.95213 13.5669 9.941 13.547C9.92988 13.5271 9.91483 13.5097 9.89678 13.4958C9.87873 13.4819 9.85805 13.4719 9.83599 13.4662C9.81393 13.4606 9.79095 13.4594 9.76845 13.4629Z" fill="#DC9A70"/>
<path d="M7.31264 17.3389C7.33687 17.3325 7.3596 17.3213 7.37953 17.3061C7.39946 17.2908 7.41619 17.2718 7.42877 17.2501C7.44134 17.2284 7.44953 17.2045 7.45285 17.1796C7.45616 17.1548 7.45455 17.1295 7.4481 17.1052C7.44166 17.081 7.4305 17.0583 7.41526 17.0383C7.40003 17.0184 7.38102 17.0017 7.35933 16.9891C7.33763 16.9765 7.31366 16.9684 7.2888 16.965C7.26394 16.9617 7.23867 16.9633 7.21443 16.9698C6.88037 17.0586 6.53623 16.859 6.44732 16.5247C6.35842 16.1904 6.55779 15.8461 6.89193 15.7573C6.94088 15.7443 6.98266 15.7123 7.00806 15.6685C7.03347 15.6247 7.04042 15.5726 7.0274 15.5236C7.01438 15.4747 6.98244 15.4329 6.93862 15.4075C6.8948 15.3821 6.84268 15.3751 6.79373 15.3881C6.25607 15.5312 5.93506 16.0851 6.0781 16.623C6.22115 17.1607 6.77498 17.4819 7.31264 17.3389Z" fill="#E6B290"/>
<path d="M4.82378 10.6103C6.44323 10.1795 8.79605 9.9481 8.88308 9.98778C8.97081 10.0279 8.87222 10.5504 8.96144 10.5994C9.14753 10.7015 9.33784 10.8232 9.53612 10.9664C9.71941 11.0987 9.5323 11.2484 8.84191 11.4615C8.66222 11.5169 8.98972 11.9078 8.78003 11.9669C8.66558 11.9993 6.35644 11.6336 7.22597 14.9025C7.29542 15.1636 7.21167 15.3764 6.95448 15.4448C6.76519 15.4951 6.03909 15.7333 6.26261 16.5736C6.51745 17.5316 4.21589 19.0947 4.11222 19.0297C3.41495 18.5929 2.47683 17.234 2.07901 15.7383C1.6812 14.2426 2.00909 11.359 4.82378 10.6103Z" fill="#543420"/>
</g>
<defs>
<clipPath id="clip0_81_216">
<rect width="40" height="40" fill="white"/>
</clipPath>
</defs>
</svg>
