<svg width="40" height="40" viewBox="0 0 40 40" fill="none" xmlns="http://www.w3.org/2000/svg">
<g clip-path="url(#clip0_81_192)">
<path d="M19.0625 5.6875C19.0625 5.6875 17.4375 6.375 15.625 4.625C14.5625 3.625 12.75 2.75 12 2.5H11.3125C11.3125 2.5 8.9375 2.5 6.4375 4.625C4.9375 5.875 3.5625 6 3.3125 5.6875H2.625C1.75 7.625 0 7.375 0 7.375V26.375H21.375L19.75 5.6875H19.0625Z" fill="#3E4347"/>
<path d="M19.75 5.6875C19.75 5.6875 18.125 6.375 16.3125 4.625C14.125 2.5 12 2.5 12 2.5C12 2.5 9.625 2.5 7.125 4.625C5.0625 6.375 3.3125 5.6875 3.3125 5.6875C2.4375 7.625 0.6875 7.4375 0.6875 7.4375V26.4375H22.0625V7.375C22.0625 7.375 20.5 7.625 19.75 5.6875Z" fill="#62696D"/>
<path d="M0.6875 22.1875L14.0625 29.375V35L0.6875 26.375V22.1875Z" fill="#3E4347"/>
<path d="M14.0625 35L40 30.625V25.625L14.0625 29.375V35ZM13.4375 34.625L13.6875 37.25L14.0625 37.5V35L13.4375 34.625Z" fill="#62696D"/>
<path d="M14.0625 37.5L14.9375 37.25L15.375 34.8125L14.0625 35V37.5ZM39.75 33.125V30.6875L38.0625 31L38.625 33.3125L39.75 33.125ZM0.25 26.375V28.375H1.1875L1.8125 26.375H0.25Z" fill="#3E4347"/>
<path d="M0.6875 22.1875L14.0625 29.375L40 25.625L21.875 19.375L0.6875 22.1875Z" fill="#94989B"/>
<path d="M1.4375 18.5625L14.5 23.75V28.5L1.4375 22.0625V18.5625Z" fill="#DAE3EA"/>
<path d="M14.5 28.5L38.6875 25.3125V21.0625L14.5 23.75V28.5Z" fill="#FFDD7D"/>
<path d="M1.4375 18.5625L14.5 23.75L38.6875 21.0625L22.0625 16.875L1.4375 18.5625Z" fill="white"/>
<path d="M2.5625 16C2.5625 16 3.3125 18 5.6875 18.9375C5.6875 18.9375 9.25 17.875 14 17.9375C14 17.9375 12.125 16.25 11.625 14.8125C11.625 14.875 7.5 13.375 2.5625 16ZM13.375 15.125C13.375 15.125 13.875 17.125 15.5 18.0625C15.5 18.0625 17.9375 17 21.125 17.0625C21.125 17.0625 19.875 15.375 19.5 13.9375C19.5625 14 16.75 12.5 13.375 15.125Z" fill="#B2C1C0"/>
<path d="M4.6875 14.5C4.6875 14.5 6.3125 16.6875 7.0625 19.625C7.0625 19.625 10.625 18.1875 15.375 18.25C15.375 18.25 13.5 15.875 13 13.9375C13 13.9375 9.5 13.25 4.6875 14.5ZM14.125 13.875C14.125 13.875 15.5625 15.875 16.25 18.5C16.25 18.5 19.4375 17.1875 23.6875 17.25C23.6875 17.25 22 15.125 21.5625 13.375C21.5625 13.375 18.4375 12.75 14.125 13.875Z" fill="#DAE3EA"/>
<path d="M7.37501 25C7.37501 25 7.00001 22.375 7.18751 21.625C7.31251 21.0625 7.93751 20.25 8.25001 19.9375C9.12501 19.25 12.1875 19 12.1875 19C12.1875 19 23.25 17.4375 26.875 17.5625C27.4375 17.5625 28.9375 18.5625 28.9375 18.5625L11.6875 20.75L9.81251 24.0625L9.62501 26.1875L7.37501 25Z" fill="#A53838"/>
<path d="M10.875 22.3125L9.875 24.0625L9.6875 26.125L14.5 28.5V23.75L10.875 22.3125Z" fill="#A53838"/>
<path d="M14.5 23.75V28.5L38.6875 25.3125V21.0625L14.5 23.75Z" fill="#ED4C5C"/>
<path d="M10.875 22.3125L14.5 23.75L38.6875 21.0625L28.8125 18.5625L11.75 20.6875L10.875 22.3125Z" fill="#C94747"/>
<path d="M34 19.875C34 19.875 33.5625 19.125 33.375 18.9375C33.125 18.75 32.375 18.6875 32.375 18.6875C32.375 18.6875 32.125 18.125 32 18.0625C31.6875 17.9375 30.8125 18.5 30.8125 18.5C30.8125 18.5 30.3125 17.8125 30.125 17.8125C25.5625 17.8125 16 18.9375 11.5625 20.25C11.0625 20.375 10.3125 21.5625 10.0625 22.125C9.43747 23.375 8.62497 26.25 8.43747 27.8125C8.24997 29.25 9.12497 33.375 9.12497 33.375C9.12497 33.375 9.87497 30.5625 10.5625 29.75C10.875 29.375 11.1875 31.4375 11.1875 31.4375C11.1875 31.4375 11.75 28.8125 11.9375 28.5625C12.1875 28.25 12.5625 30.125 12.5625 30.125C12.5625 30.125 12.9375 26 13.25 25C13.4375 24.3125 14.125 23.125 14.5625 22.9375C18.9375 21 28.125 19.4375 32.625 19.5625C32.875 19.625 34 19.875 34 19.875Z" fill="#ED4C5C"/>
</g>
<defs>
<clipPath id="clip0_81_192">
<rect width="40" height="40" fill="white"/>
</clipPath>
</defs>
</svg>
