<svg width="88" height="88" viewBox="0 0 88 88" fill="none" xmlns="http://www.w3.org/2000/svg">
<g opacity="0.75">
<path d="M68.1126 29.9695H40.8675C40.145 29.9695 39.452 30.2565 38.941 30.7675C38.4301 31.2784 38.143 31.9714 38.143 32.694V43.592C38.1497 47.4515 39.5205 51.1845 42.0134 54.131C44.5062 57.0775 47.9604 59.0479 51.7655 59.6938V76.286H43.592V81.735H65.3881V76.286H57.2145V59.6938C61.0197 59.0479 64.4739 57.0775 66.9667 54.131C69.4596 51.1845 70.8304 47.4515 70.8371 43.592V32.694C70.8371 31.9714 70.55 31.2784 70.0391 30.7675C69.5281 30.2565 68.8351 29.9695 68.1126 29.9695ZM65.3881 43.592C65.3881 46.4823 64.2399 49.2543 62.1961 51.298C60.1523 53.3418 57.3804 54.49 54.49 54.49C51.5997 54.49 48.8278 53.3418 46.784 51.298C44.7402 49.2543 43.592 46.4823 43.592 43.592V35.4185H65.3881V43.592Z" fill="#1A3D63"/>
<path d="M40.8675 2.72461H27.245C26.5224 2.72461 25.8294 3.01165 25.3185 3.5226C24.8076 4.03354 24.5205 4.72653 24.5205 5.44911V25.5287C21.8731 27.0797 19.7075 29.3344 18.2646 32.0423C16.8217 34.7502 16.1579 37.8051 16.347 40.8676V79.0107C16.347 79.7332 16.6341 80.4262 17.145 80.9372C17.6559 81.4481 18.3489 81.7352 19.0715 81.7352H32.694V76.2862H21.796V40.8676C21.796 32.1846 27.8744 29.9151 28.106 29.8307L29.9695 29.2068V8.17361H38.143V21.7961H43.592V5.44911C43.592 4.72653 43.305 4.03354 42.794 3.5226C42.2831 3.01165 41.5901 2.72461 40.8675 2.72461Z" fill="#1A3D63"/>
</g>
</svg>
