<svg width="72" height="72" viewBox="0 0 72 72" fill="none" xmlns="http://www.w3.org/2000/svg">
<g clip-path="url(#clip0_23_29)">
<path d="M66.3989 43.4146V51.0761C66.3989 55.5718 64.6963 59.3759 61.2913 62.4884V70.2296C61.2913 70.602 61.1716 70.9079 60.9321 71.1473C60.6927 71.3868 60.3868 71.5065 60.0144 71.5065H57.4606C57.0881 71.5065 56.7822 71.3868 56.5428 71.1473C56.3034 70.9079 56.1837 70.602 56.1837 70.2296V65.521C54.5077 66.1062 52.8052 66.3989 51.0761 66.3989H20.4304C18.7013 66.3989 16.9987 66.1062 15.3228 65.521V69.9103C15.3228 70.3626 15.1965 70.7417 14.9437 71.0476C14.691 71.3535 14.3917 71.5065 14.0459 71.5065H11.4921C11.1463 71.5065 10.847 71.3535 10.5943 71.0476C10.3416 70.7417 10.2152 70.3626 10.2152 69.9103V62.4884C6.81014 59.3759 5.10761 55.5718 5.10761 51.0761V43.4146H66.3989ZM28.0918 26.8149C28.0918 27.1874 27.9721 27.4933 27.7327 27.7327C27.4933 27.9721 27.1874 28.0918 26.8149 28.0918C26.4425 28.0918 26.1366 27.9721 25.8972 27.7327C25.6577 27.4933 25.538 27.1874 25.538 26.8149C25.538 26.4425 25.6577 26.1366 25.8972 25.8972C26.1366 25.6577 26.4425 25.538 26.8149 25.538C27.1874 25.538 27.4933 25.6577 27.7327 25.8972C27.9721 26.1366 28.0918 26.4425 28.0918 26.8149ZM30.6456 24.2611C30.6456 24.6336 30.5259 24.9395 30.2865 25.1789C30.0471 25.4183 29.7412 25.538 29.3687 25.538C28.9963 25.538 28.6904 25.4183 28.451 25.1789C28.2115 24.9395 28.0918 24.6336 28.0918 24.2611C28.0918 23.8887 28.2115 23.5828 28.451 23.3434C28.6904 23.1039 28.9963 22.9842 29.3687 22.9842C29.7412 22.9842 30.0471 23.1039 30.2865 23.3434C30.5259 23.5828 30.6456 23.8887 30.6456 24.2611ZM28.0918 21.7073C28.0918 22.0798 27.9721 22.3857 27.7327 22.6251C27.4933 22.8645 27.1874 22.9842 26.8149 22.9842C26.4425 22.9842 26.1366 22.8645 25.8972 22.6251C25.6577 22.3857 25.538 22.0798 25.538 21.7073C25.538 21.3349 25.6577 21.029 25.8972 20.7896C26.1366 20.5501 26.4425 20.4304 26.8149 20.4304C27.1874 20.4304 27.4933 20.5501 27.7327 20.7896C27.9721 21.029 28.0918 21.3349 28.0918 21.7073ZM33.1994 21.7073C33.1994 22.0798 33.0797 22.3857 32.8403 22.6251C32.6009 22.8645 32.295 22.9842 31.9225 22.9842C31.5501 22.9842 31.2442 22.8645 31.0048 22.6251C30.7653 22.3857 30.6456 22.0798 30.6456 21.7073C30.6456 21.3349 30.7653 21.029 31.0048 20.7896C31.2442 20.5501 31.5501 20.4304 31.9225 20.4304C32.295 20.4304 32.6009 20.5501 32.8403 20.7896C33.0797 21.029 33.1994 21.3349 33.1994 21.7073ZM30.6456 19.1535C30.6456 19.5259 30.5259 19.8319 30.2865 20.0713C30.0471 20.3107 29.7412 20.4304 29.3687 20.4304C28.9963 20.4304 28.6904 20.3107 28.451 20.0713C28.2115 19.8319 28.0918 19.5259 28.0918 19.1535C28.0918 18.7811 28.2115 18.4752 28.451 18.2357C28.6904 17.9963 28.9963 17.8766 29.3687 17.8766C29.7412 17.8766 30.0471 17.9963 30.2865 18.2357C30.5259 18.4752 30.6456 18.7811 30.6456 19.1535ZM28.0918 16.5997C28.0918 16.9721 27.9721 17.2781 27.7327 17.5175C27.4933 17.7569 27.1874 17.8766 26.8149 17.8766C26.4425 17.8766 26.1366 17.7569 25.8972 17.5175C25.6577 17.2781 25.538 16.9721 25.538 16.5997C25.538 16.2273 25.6577 15.9214 25.8972 15.6819C26.1366 15.4425 26.4425 15.3228 26.8149 15.3228C27.1874 15.3228 27.4933 15.4425 27.7327 15.6819C27.9721 15.9214 28.0918 16.2273 28.0918 16.5997ZM71.5065 37.0301V39.5839C71.5065 39.9564 71.3868 40.2623 71.1473 40.5017C70.9079 40.7411 70.602 40.8608 70.2296 40.8608H1.2769C0.904472 40.8608 0.598548 40.7411 0.359129 40.5017C0.11971 40.2623 0 39.9564 0 39.5839V37.0301C0 36.6577 0.11971 36.3518 0.359129 36.1124C0.598548 35.8729 0.904472 35.7532 1.2769 35.7532H5.10761V10.2152C5.10761 7.39539 6.10518 4.9879 8.10034 2.99274C10.0955 0.997579 12.503 0 15.3228 0C18.1958 0 20.6432 1.03748 22.665 3.11245C23.8887 2.60701 25.1922 2.44739 26.5755 2.63361C27.9588 2.81982 29.1958 3.33857 30.2865 4.18983L31.1644 3.31196C31.457 3.01934 31.7496 3.01934 32.0422 3.31196L33.7182 4.9879C34.0108 5.28052 34.0108 5.57314 33.7182 5.86577L21.1886 18.3954C20.896 18.688 20.6033 18.688 20.3107 18.3954L18.6348 16.7194C18.3422 16.4268 18.3422 16.1342 18.6348 15.8416L19.5126 14.9637C18.555 13.74 18.0163 12.3567 17.8966 10.8138C17.7769 9.27084 18.0894 7.83432 18.8343 6.50422C17.85 5.57314 16.6795 5.10761 15.3228 5.10761C13.9129 5.10761 12.7092 5.6064 11.7116 6.60397C10.714 7.60155 10.2152 8.8053 10.2152 10.2152V35.7532H70.2296C70.602 35.7532 70.9079 35.8729 71.1473 36.1124C71.3868 36.3518 71.5065 36.6577 71.5065 37.0301ZM35.7532 19.1535C35.7532 19.5259 35.6335 19.8319 35.3941 20.0713C35.1547 20.3107 34.8488 20.4304 34.4763 20.4304C34.1039 20.4304 33.798 20.3107 33.5586 20.0713C33.3191 19.8319 33.1994 19.5259 33.1994 19.1535C33.1994 18.7811 33.3191 18.4752 33.5586 18.2357C33.798 17.9963 34.1039 17.8766 34.4763 17.8766C34.8488 17.8766 35.1547 17.9963 35.3941 18.2357C35.6335 18.4752 35.7532 18.7811 35.7532 19.1535ZM33.1994 16.5997C33.1994 16.9721 33.0797 17.2781 32.8403 17.5175C32.6009 17.7569 32.295 17.8766 31.9225 17.8766C31.5501 17.8766 31.2442 17.7569 31.0048 17.5175C30.7653 17.2781 30.6456 16.9721 30.6456 16.5997C30.6456 16.2273 30.7653 15.9214 31.0048 15.6819C31.2442 15.4425 31.5501 15.3228 31.9225 15.3228C32.295 15.3228 32.6009 15.4425 32.8403 15.6819C33.0797 15.9214 33.1994 16.2273 33.1994 16.5997ZM30.6456 14.0459C30.6456 14.4183 30.5259 14.7243 30.2865 14.9637C30.0471 15.2031 29.7412 15.3228 29.3687 15.3228C28.9963 15.3228 28.6904 15.2031 28.451 14.9637C28.2115 14.7243 28.0918 14.4183 28.0918 14.0459C28.0918 13.6735 28.2115 13.3676 28.451 13.1281C28.6904 12.8887 28.9963 12.769 29.3687 12.769C29.7412 12.769 30.0471 12.8887 30.2865 13.1281C30.5259 13.3676 30.6456 13.6735 30.6456 14.0459ZM38.307 16.5997C38.307 16.9721 38.1873 17.2781 37.9479 17.5175C37.7085 17.7569 37.4026 17.8766 37.0301 17.8766C36.6577 17.8766 36.3518 17.7569 36.1124 17.5175C35.8729 17.2781 35.7532 16.9721 35.7532 16.5997C35.7532 16.2273 35.8729 15.9214 36.1124 15.6819C36.3518 15.4425 36.6577 15.3228 37.0301 15.3228C37.4026 15.3228 37.7085 15.4425 37.9479 15.6819C38.1873 15.9214 38.307 16.2273 38.307 16.5997ZM35.7532 14.0459C35.7532 14.4183 35.6335 14.7243 35.3941 14.9637C35.1547 15.2031 34.8488 15.3228 34.4763 15.3228C34.1039 15.3228 33.798 15.2031 33.5586 14.9637C33.3191 14.7243 33.1994 14.4183 33.1994 14.0459C33.1994 13.6735 33.3191 13.3676 33.5586 13.1281C33.798 12.8887 34.1039 12.769 34.4763 12.769C34.8488 12.769 35.1547 12.8887 35.3941 13.1281C35.6335 13.3676 35.7532 13.6735 35.7532 14.0459ZM33.1994 11.4921C33.1994 11.8645 33.0797 12.1705 32.8403 12.4099C32.6009 12.6493 32.295 12.769 31.9225 12.769C31.5501 12.769 31.2442 12.6493 31.0048 12.4099C30.7653 12.1705 30.6456 11.8645 30.6456 11.4921C30.6456 11.1197 30.7653 10.8138 31.0048 10.5743C31.2442 10.3349 31.5501 10.2152 31.9225 10.2152C32.295 10.2152 32.6009 10.3349 32.8403 10.5743C33.0797 10.8138 33.1994 11.1197 33.1994 11.4921ZM40.8608 14.0459C40.8608 14.4183 40.7411 14.7243 40.5017 14.9637C40.2623 15.2031 39.9564 15.3228 39.5839 15.3228C39.2115 15.3228 38.9056 15.2031 38.6662 14.9637C38.4268 14.7243 38.307 14.4183 38.307 14.0459C38.307 13.6735 38.4268 13.3676 38.6662 13.1281C38.9056 12.8887 39.2115 12.769 39.5839 12.769C39.9564 12.769 40.2623 12.8887 40.5017 13.1281C40.7411 13.3676 40.8608 13.6735 40.8608 14.0459ZM38.307 11.4921C38.307 11.8645 38.1873 12.1705 37.9479 12.4099C37.7085 12.6493 37.4026 12.769 37.0301 12.769C36.6577 12.769 36.3518 12.6493 36.1124 12.4099C35.8729 12.1705 35.7532 11.8645 35.7532 11.4921C35.7532 11.1197 35.8729 10.8138 36.1124 10.5743C36.3518 10.3349 36.6577 10.2152 37.0301 10.2152C37.4026 10.2152 37.7085 10.3349 37.9479 10.5743C38.1873 10.8138 38.307 11.1197 38.307 11.4921ZM43.4146 11.4921C43.4146 11.8645 43.2949 12.1705 43.0555 12.4099C42.8161 12.6493 42.5102 12.769 42.1377 12.769C41.7653 12.769 41.4594 12.6493 41.22 12.4099C40.9806 12.1705 40.8608 11.8645 40.8608 11.4921C40.8608 11.1197 40.9806 10.8138 41.22 10.5743C41.4594 10.3349 41.7653 10.2152 42.1377 10.2152C42.5102 10.2152 42.8161 10.3349 43.0555 10.5743C43.2949 10.8138 43.4146 11.1197 43.4146 11.4921Z" fill="#1A3D63"/>
</g>
<defs>
<clipPath id="clip0_23_29">
<rect width="71.5065" height="71.5065" fill="white"/>
</clipPath>
</defs>
</svg>
