<svg width="88" height="88" viewBox="0 0 88 88" fill="none" xmlns="http://www.w3.org/2000/svg">
<g opacity="0.75" clip-path="url(#clip0_23_276)">
<path d="M86.5884 46.1033C87.4176 47.9331 87.8322 49.8344 87.8322 51.8072V54.8951C87.8322 55.9815 87.6892 57.0251 87.4033 58.0258C87.1174 59.0265 86.6885 59.9557 86.1167 60.8134C85.5449 61.6712 84.8587 62.4431 84.0581 63.1293C83.2576 63.8155 82.3712 64.3873 81.3991 64.8448C80.9703 65.8455 80.4128 66.7461 79.7266 67.5467C79.0404 68.3472 78.2541 69.0191 77.3678 69.5624C76.4815 70.1056 75.5379 70.5488 74.5373 70.8918C73.5366 71.2349 72.4787 71.3922 71.3636 71.3636C69.3908 71.3636 67.561 70.8776 65.8741 69.9054C64.1872 68.9333 62.8435 67.5896 61.8428 65.8741H31.4789C30.4782 67.5896 29.1344 68.9333 27.4476 69.9054C25.7607 70.8776 23.9308 71.3636 21.958 71.3636C19.9853 71.3636 18.1554 70.8776 16.4685 69.9054C14.7817 68.9333 13.4379 67.5896 12.4372 65.8741H5.48951C4.71755 65.8741 4.00277 65.7311 3.34517 65.4452C2.68758 65.1593 2.11575 64.7733 1.6297 64.2873C1.14365 63.8012 0.743374 63.2151 0.428871 62.5289C0.114368 61.8427 -0.0285879 61.128 3.34345e-06 60.3846V49.4056C3.34345e-06 47.1469 0.428871 45.0168 1.28661 43.0154C2.14434 41.014 3.31658 39.27 4.80332 37.7832C6.29007 36.2965 8.03413 35.11 10.0355 34.2236C12.0369 33.3373 14.1812 32.9084 16.4685 32.937H18.0553L32.1222 18.8702C32.8942 18.0982 33.7805 17.5121 34.7812 17.1118C35.7819 16.7115 36.8398 16.4971 37.9548 16.4685H76.8531V21.958H75.6094L86.5884 46.1033ZM21.958 65.8741C22.73 65.8741 23.4448 65.7311 24.1024 65.4452C24.76 65.1593 25.3318 64.7733 25.8179 64.2873C26.3039 63.8012 26.7042 63.2151 27.0187 62.5289C27.3332 61.8427 27.4761 61.128 27.4476 60.3846C27.4476 59.6126 27.3046 58.8978 27.0187 58.2402C26.7328 57.5826 26.3468 57.0108 25.8607 56.5248C25.3747 56.0387 24.7886 55.6384 24.1024 55.3239C23.4162 55.0094 22.7014 54.8665 21.958 54.8951C21.1861 54.8951 20.4713 55.038 19.8137 55.3239C19.1561 55.6099 18.5843 55.9958 18.0982 56.4819C17.6122 56.9679 17.2119 57.5541 16.8974 58.2402C16.5829 58.9264 16.4399 59.6412 16.4685 60.3846C16.4685 61.1565 16.6115 61.8713 16.8974 62.5289C17.1833 63.1865 17.5693 63.7583 18.0553 64.2444C18.5414 64.7304 19.1275 65.1307 19.8137 65.4452C20.4999 65.7597 21.2147 65.9027 21.958 65.8741ZM49.4056 21.958H37.9548C37.2114 21.958 36.5681 22.2296 36.0249 22.7729L25.8607 32.937H49.4056V21.958ZM54.8951 32.937H74.5801L70.3344 23.5448C70.1056 23.0588 69.7625 22.6728 69.3051 22.3869C68.8476 22.101 68.3473 21.958 67.804 21.958H54.8951V32.937ZM71.3636 65.8741C72.1356 65.8741 72.8504 65.7311 73.508 65.4452C74.1656 65.1593 74.7374 64.7733 75.2234 64.2873C75.7095 63.8012 76.1098 63.2151 76.4243 62.5289C76.7388 61.8427 76.8817 61.128 76.8531 60.3846C76.8531 59.6126 76.7102 58.8978 76.4243 58.2402C76.1384 57.5826 75.7524 57.0108 75.2663 56.5248C74.7803 56.0387 74.1942 55.6384 73.508 55.3239C72.8218 55.0094 72.107 54.8665 71.3636 54.8951C70.5917 54.8951 69.8769 55.038 69.2193 55.3239C68.5617 55.6099 67.9899 55.9958 67.5038 56.4819C67.0178 56.9679 66.6175 57.5541 66.303 58.2402C65.9885 58.9264 65.8455 59.6412 65.8741 60.3846C65.8741 61.1565 66.0171 61.8713 66.303 62.5289C66.5889 63.1865 66.9749 63.7583 67.4609 64.2444C67.947 64.7304 68.5331 65.1307 69.2193 65.4452C69.9055 65.7597 70.6203 65.9027 71.3636 65.8741Z" fill="#1A3D63"/>
</g>
<defs>
<clipPath id="clip0_23_276">
<rect width="87.8322" height="87.8322" fill="white"/>
</clipPath>
</defs>
</svg>
