<svg width="80" height="80" viewBox="0 0 80 80" fill="none" xmlns="http://www.w3.org/2000/svg">
<g clip-path="url(#clip0_23_232)">
<path d="M63.8694 38.8717C65.15 35.4963 69.1459 33.8285 72.5064 35.263L74.4324 36.087C76.7802 37.0847 78.7261 38.9064 79.1331 41.3536C81.4015 54.88 69.6572 74.1147 56.1506 79.024C53.7084 79.9075 51.0677 79.2225 48.9779 77.8029L47.2604 76.6314C46.5561 76.1564 45.9632 75.5343 45.5224 74.8081C45.0816 74.0819 44.8035 73.2687 44.7073 72.4247C44.611 71.5806 44.6989 70.7257 44.9649 69.9189C45.2308 69.1121 45.6685 68.3725 46.2478 67.7511L48.9481 64.7381C49.5841 64.0392 50.3951 63.5226 51.2973 63.2416C52.1995 62.9607 53.1604 62.9255 54.0807 63.1398L60.1614 64.5793C64.9862 61.5646 67.5724 57.3288 67.9198 51.8719L63.5616 47.603C62.9089 46.967 62.4567 46.1538 62.2608 45.2638C62.065 44.3737 62.1341 43.4458 62.4596 42.5945L63.8694 38.8717ZM37.2286 39.7106C39.8616 39.7106 42.3867 40.7565 44.2485 42.6183C46.1103 44.4801 47.1562 47.0052 47.1562 49.6382C47.1562 54.4283 44.2176 58.2256 40.1523 60.7075C36.0869 63.1795 30.6515 64.5296 24.8191 64.5296C18.9866 64.5296 13.5512 63.1795 9.48584 60.7075C5.41552 58.2256 2.4819 54.4283 2.4819 49.6382C2.4819 47.0052 3.52785 44.4801 5.38964 42.6183C7.25143 40.7565 9.77656 39.7106 12.4095 39.7106H37.2286ZM12.4095 44.6744C11.093 44.6744 9.83048 45.1974 8.89958 46.1283C7.96869 47.0591 7.44571 48.3217 7.44571 49.6382C7.44571 52.1598 8.95471 54.5623 12.072 56.4634C15.1893 58.3646 19.6865 59.5658 24.8191 59.5658C29.9516 59.5658 34.4488 58.3646 37.5661 56.4634C40.6834 54.5623 42.1924 52.1598 42.1924 49.6382C42.1924 48.3217 41.6694 47.0591 40.7385 46.1283C39.8076 45.1974 38.5451 44.6744 37.2286 44.6744H12.4095ZM58.2305 12.4543C60.9833 12.7368 63.5337 14.0299 65.3885 16.0837C67.2433 18.1374 68.2707 20.8059 68.2723 23.5732L68.2127 24.7149C67.9279 27.466 66.6338 30.0139 64.5803 31.8667C62.5267 33.7194 59.8595 34.7455 57.0938 34.7468L55.9521 34.6872C53.3949 34.4263 51.0059 33.2913 49.1883 31.4737C47.3707 29.6561 46.2357 27.2671 45.9748 24.7099L45.9153 23.5683C45.9139 22.0999 46.2022 20.6457 46.7635 19.2889C47.3248 17.9321 48.1482 16.6992 49.1865 15.661C50.2247 14.6227 51.4576 13.7993 52.8144 13.238C54.1712 12.6767 55.6254 12.3885 57.0938 12.3898L58.2305 12.4543ZM24.8191 7.4458C28.4394 7.4458 31.9114 8.88397 34.4714 11.4439C37.0314 14.0039 38.4695 17.4759 38.4695 21.0963C38.4695 24.7166 37.0314 28.1887 34.4714 30.7486C31.9114 33.3086 28.4394 34.7468 24.8191 34.7468C21.1987 34.7468 17.7267 33.3086 15.1667 30.7486C12.6067 28.1887 11.1686 24.7166 11.1686 21.0963C11.1686 17.4759 12.6067 14.0039 15.1667 11.4439C17.7267 8.88397 21.1987 7.4458 24.8191 7.4458ZM57.0938 17.3585C56.2776 17.3585 55.4695 17.5193 54.7155 17.8316C53.9615 18.1439 53.2764 18.6017 52.6993 19.1788C52.1222 19.7559 51.6644 20.441 51.3521 21.195C51.0398 21.949 50.8791 22.7571 50.8791 23.5732C50.8791 24.3893 51.0398 25.1975 51.3521 25.9515C51.6644 26.7055 52.1222 27.3906 52.6993 27.9677C53.2764 28.5448 53.9615 29.0025 54.7155 29.3148C55.4695 29.6272 56.2776 29.7879 57.0938 29.7879C58.742 29.7879 60.3227 29.1332 61.4882 27.9677C62.6537 26.8022 63.3084 25.2215 63.3084 23.5732C63.3084 21.925 62.6537 20.3443 61.4882 19.1788C60.3227 18.0133 58.742 17.3585 57.0938 17.3585ZM24.8191 12.4096C22.5152 12.4096 20.3057 13.3248 18.6767 14.9539C17.0476 16.5829 16.1324 18.7924 16.1324 21.0963C16.1324 23.4001 17.0476 25.6096 18.6767 27.2387C20.3057 28.8678 22.5152 29.7829 24.8191 29.7829C27.1229 29.7829 29.3324 28.8678 30.9615 27.2387C32.5905 25.6096 33.5057 23.4001 33.5057 21.0963C33.5057 18.7924 32.5905 16.5829 30.9615 14.9539C29.3324 13.3248 27.1229 12.4096 24.8191 12.4096Z" fill="#BBD0DD"/>
</g>
<defs>
<clipPath id="clip0_23_232">
<rect width="79.421" height="79.421" fill="white"/>
</clipPath>
</defs>
</svg>
