<svg width="85" height="85" viewBox="0 0 85 85" fill="none" xmlns="http://www.w3.org/2000/svg">
<g opacity="0.75" clip-path="url(#clip0_23_272)">
<path fill-rule="evenodd" clip-rule="evenodd" d="M56.03 60.1835C55.3256 58.7813 54.193 57.5814 53.9397 57.3122C53.4338 56.7745 52.6899 56.0852 51.6856 55.4037C49.6573 54.0271 46.6148 52.718 42.4645 52.718C38.3143 52.718 35.2718 54.0271 33.2434 55.4037C32.2392 56.0852 31.4953 56.7745 30.9893 57.3122C30.7835 57.5301 30.5871 57.7569 30.4008 57.9917C30.3308 58.0805 29.6864 58.7813 28.8991 60.1835L42.4645 73.3178L56.03 60.1835Z" fill="#1A3D63"/>
<path fill-rule="evenodd" clip-rule="evenodd" d="M70.5392 46.3274C70.5392 46.3274 69.213 44.6307 67.9345 43.1877C66.942 42.0675 64.9321 40.25 62.8087 38.8124C58.5354 35.9188 52.2096 32.9939 42.4645 32.9939C32.7194 32.9939 26.3937 35.9188 22.1204 38.8124C19.997 40.25 18.6643 41.379 17.3317 42.8219C15.999 44.2649 14.3898 46.3274 14.3898 46.3274L23.7841 55.3828L25.6149 53.3279L25.6459 53.2946C25.6791 53.2596 25.737 53.1996 25.8191 53.1179C26.071 52.8697 26.3315 52.6303 26.6002 52.4004C27.3125 51.7878 28.3955 50.9518 29.8303 50.1106C32.6949 48.4312 36.9423 46.741 42.4645 46.741C47.9867 46.741 52.2342 48.4312 55.0987 50.1106C56.5336 50.9518 57.6166 51.7878 58.3288 52.4004C58.5975 52.6303 58.8581 52.8697 59.11 53.1179C59.1921 53.1996 59.25 53.2596 59.2831 53.2946L59.3142 53.3279L59.3157 53.3296L61.1449 55.3828L70.5392 46.3274Z" fill="#1A3D63"/>
<path fill-rule="evenodd" clip-rule="evenodd" d="M84.9291 32.4058C84.9291 32.4058 84.1826 31.019 82.9634 29.6713C82.2351 28.866 81.9318 28.4428 81.1131 27.596C79.4762 25.9029 77.0154 23.6733 73.665 21.4519C66.9452 16.9963 56.6931 12.6067 42.4645 12.6067C28.2359 12.6067 17.9839 16.9963 11.264 21.4519C7.91366 23.6733 5.45288 25.9029 3.81617 27.596C2.99723 28.4428 2.38316 29.1571 1.96564 29.6713C1.7568 29.9284 1.66972 30.043 1.48493 30.285C0.871518 31.0887 0 32.4058 0 32.4058L9.63082 41.6738L11.4561 39.5173L11.4565 39.5166L11.4568 39.5163L11.4701 39.501C11.4848 39.484 11.5107 39.4547 11.5479 39.4133C11.6644 39.2837 11.783 39.156 11.9035 39.0303C12.229 38.6892 12.7294 38.1871 13.3997 37.5772C14.742 36.3561 16.7564 34.7108 19.4026 33.0618C24.6926 29.7655 32.4694 26.475 42.4645 26.475C52.4596 26.475 60.2364 29.7655 65.5264 33.0618C68.1727 34.7108 70.1871 36.3561 71.5294 37.5772C72.1997 38.1871 72.7001 38.6892 73.0256 39.0303C73.1461 39.156 73.2647 39.2837 73.3812 39.4133C73.4184 39.4547 73.4443 39.484 73.459 39.501L73.465 39.508L73.4723 39.5164L73.4726 39.5166L73.4729 39.5173L75.2982 41.6738L84.9291 32.4058Z" fill="#1A3D63"/>
</g>
<defs>
<clipPath id="clip0_23_272">
<rect width="84.9291" height="84.9291" fill="white"/>
</clipPath>
</defs>
</svg>
