<svg width="72" height="72" viewBox="0 0 72 72" fill="none" xmlns="http://www.w3.org/2000/svg">
<path d="M6.63393 14.5248H60.3336V7.19534C60.3336 6.86469 60.2603 6.53815 60.1188 6.23928C59.9774 5.94042 59.7714 5.67666 59.5157 5.46704C59.26 5.25742 58.9609 5.10716 58.6401 5.0271C58.3193 4.94704 57.9847 4.93917 57.6605 5.00406L6.26523 13.4508C5.88252 13.5269 5.52644 13.702 5.23241 13.9586C4.93838 14.2151 4.71665 14.5442 4.58929 14.913C5.24022 14.6557 5.93399 14.524 6.63393 14.5248ZM64.7329 17.8766H6.63393C6.04128 17.8766 5.47291 18.112 5.05385 18.5311C4.63478 18.9502 4.39935 19.5185 4.39935 20.1112V60.3336C4.39935 60.9262 4.63478 61.4946 5.05385 61.9137C5.47291 62.3327 6.04128 62.5682 6.63393 62.5682H64.7329C65.3256 62.5682 65.894 62.3327 66.313 61.9137C66.7321 61.4946 66.9675 60.9262 66.9675 60.3336V20.1112C66.9675 19.5185 66.7321 18.9502 66.313 18.5311C65.894 18.112 65.3256 17.8766 64.7329 17.8766ZM51.3953 44.6915C50.5114 44.6915 49.6473 44.4294 48.9124 43.9384C48.1774 43.4473 47.6046 42.7493 47.2663 41.9327C46.9281 41.116 46.8396 40.2174 47.012 39.3505C47.1845 38.4836 47.6101 37.6872 48.2351 37.0622C48.8602 36.4372 49.6565 36.0116 50.5234 35.8391C51.3904 35.6667 52.289 35.7552 53.1056 36.0934C53.9222 36.4317 54.6202 37.0045 55.1113 37.7395C55.6024 38.4744 55.8645 39.3385 55.8645 40.2224C55.8645 41.4077 55.3936 42.5444 54.5555 43.3826C53.7174 44.2207 52.5806 44.6915 51.3953 44.6915Z" fill="#1A3D63"/>
<path d="M4.37561 36.242V16.2007C4.37561 14.4787 5.17447 13.6197 6.52918 13.4075C11.4453 12.6351 21.6936 12.2203 21.6936 12.2203C21.6936 12.2203 20.5302 14.4549 17.8766 14.4549V17.8766C20.4604 17.8766 22.2522 21.1586 22.2522 21.1586L11.8475 32.96L4.37561 36.242Z" fill="#1A3D63"/>
</svg>
