<svg width="80" height="80" viewBox="0 0 80 80" fill="none" xmlns="http://www.w3.org/2000/svg">
<path d="M59.7643 76.1119H65.2576C68.0373 76.1119 70.3206 73.9609 70.6516 71.2474L76.1118 16.7116H59.5657V3.30933H53.0466V16.7116H36.5998L37.5926 24.4552C43.2513 26.0105 48.5461 28.8233 51.7229 31.934C56.4882 36.633 59.7643 41.4976 59.7643 49.4397V76.1119ZM3.3092 72.8027V69.4935H53.0466V72.8027C53.0466 74.5897 51.5574 76.1119 49.6381 76.1119H6.61841C4.79835 76.1119 3.3092 74.5897 3.3092 72.8027ZM53.0466 49.6382C53.0466 23.1646 3.3092 23.1646 3.3092 49.6382H53.0466ZM3.3092 56.2566H52.9473V62.8751H3.3092V56.2566Z" fill="#BBD0DD"/>
</svg>
