<svg width="72" height="72" viewBox="0 0 72 72" fill="none" xmlns="http://www.w3.org/2000/svg">
<path d="M44.7664 22.986C44.7664 28.0775 40.6335 32.2036 35.5376 32.2036C30.4472 32.2036 26.3211 28.0763 26.3211 22.986C26.3211 17.8956 30.4472 13.7683 35.5376 13.7683C40.6335 13.7683 44.7664 17.8956 44.7664 22.986Z" fill="#1A3D63"/>
<path d="M35.5521 0.585449C31.2863 0.585449 25.3278 2.28596 21.0117 6.60205L26.1379 15.9415C27.2578 14.5158 28.6874 13.3635 30.3184 12.5718C31.9494 11.7801 33.7391 11.3697 35.5521 11.3718C39.4168 11.3718 42.8558 13.1974 45.0469 16.0364L50.0746 6.38753C46.3396 2.30607 39.6414 0.585449 35.5521 0.585449ZM39.3509 7.44337H36.9644V9.82766H34.0974V7.44337H31.7109V4.57752H34.0974V2.18317H36.9644V4.57752H39.3509V7.44337ZM23.4251 48.7708H25.7859L22.4139 60.328H48.7607L45.4044 48.7708H47.7674L51.145 60.328H58.8979L53.6064 42.8178C52.7796 39.9274 49.1551 34.8382 42.9005 34.684L28.521 34.6717C22.1246 34.703 18.4241 39.8917 17.5872 42.8167L12.193 60.3269H20.0553L23.4251 48.7708ZM1.05807 64.0128H70.0283V70.5747H1.05807V64.0128Z" fill="#1A3D63"/>
</svg>
