<svg width="72" height="72" viewBox="0 0 72 72" fill="none" xmlns="http://www.w3.org/2000/svg">
<path fill-rule="evenodd" clip-rule="evenodd" d="M52.298 47.9868C52.9506 47.6604 53.7002 47.5847 54.4047 47.7742C55.1093 47.9636 55.7199 48.405 56.1207 49.0147L56.2935 49.3186L62.2523 61.2364C62.465 61.6614 62.5728 62.1311 62.5669 62.6063C62.5611 63.0814 62.4416 63.5483 62.2185 63.9679C61.9954 64.3875 61.6752 64.7477 61.2846 65.0184C60.894 65.289 60.4443 65.4623 59.9731 65.5238L59.5887 65.5476H11.9177C11.4424 65.5478 10.974 65.4342 10.5515 65.2164C10.129 64.9986 9.76481 64.6829 9.48923 64.2956C9.21365 63.9083 9.03473 63.4608 8.9674 62.9902C8.90006 62.5197 8.94628 62.0399 9.10218 61.5909L9.25115 61.2334L15.21 49.3156C15.544 48.6253 16.1313 48.0903 16.8498 47.822C17.5682 47.5537 18.3624 47.5728 19.0672 47.8753C19.7719 48.1777 20.3329 48.7403 20.6333 49.4459C20.9338 50.1515 20.9506 50.9458 20.6803 51.6634L20.5402 51.9822L16.7385 59.5887H54.768L50.9662 51.9822C50.6134 51.2757 50.5555 50.458 50.8052 49.7089C51.055 48.9597 51.5919 48.3403 52.298 47.9868ZM35.7532 5.95886C41.2846 5.95886 46.5894 8.15619 50.5007 12.0675C54.412 15.9787 56.6093 21.2836 56.6093 26.8149C56.6093 33.9119 52.7688 39.6771 48.7942 43.7679C46.599 45.9981 44.1855 48.0024 41.59 49.7506L40.4786 50.4836L39.4895 51.1063L39.0455 51.3744L38.2798 51.8154C36.7067 52.7092 34.7998 52.7092 33.2267 51.8154L32.461 51.3714L31.5373 50.8083L31.0278 50.4836L29.9165 49.7506C27.321 48.0024 24.9075 45.9981 22.7122 43.7679C18.7377 39.6771 14.8972 33.9119 14.8972 26.8149C14.8972 21.2836 17.0945 15.9787 21.0058 12.0675C24.917 8.15619 30.2219 5.95886 35.7532 5.95886ZM35.7532 11.9177C31.8023 11.9177 28.0131 13.4873 25.2193 16.281C22.4256 19.0748 20.8561 22.8639 20.8561 26.8149C20.8561 31.6893 23.5078 36.0363 26.9848 39.6146C29.0762 41.727 31.3875 43.6098 33.8792 45.2308L34.8922 45.8774C35.206 46.07 35.493 46.2428 35.7532 46.3958L36.6173 45.8774L37.6273 45.2308C40.119 43.6098 42.4303 41.727 44.5217 39.6146C47.9987 36.0393 50.6504 31.6893 50.6504 26.8149C50.6504 22.8639 49.0809 19.0748 46.2871 16.281C43.4934 13.4873 39.7042 11.9177 35.7532 11.9177ZM35.7532 17.8766C38.1238 17.8766 40.3973 18.8183 42.0736 20.4946C43.7498 22.1708 44.6915 24.4443 44.6915 26.8149C44.6915 29.1855 43.7498 31.459 42.0736 33.1353C40.3973 34.8115 38.1238 35.7532 35.7532 35.7532C33.3827 35.7532 31.1092 34.8115 29.4329 33.1353C27.7566 31.459 26.8149 29.1855 26.8149 26.8149C26.8149 24.4443 27.7566 22.1708 29.4329 20.4946C31.1092 18.8183 33.3827 17.8766 35.7532 17.8766ZM35.7532 23.8355C34.963 23.8355 34.2052 24.1494 33.6465 24.7081C33.0877 25.2669 32.7738 26.0247 32.7738 26.8149C32.7738 27.6051 33.0877 28.3629 33.6465 28.9217C34.2052 29.4805 34.963 29.7944 35.7532 29.7944C36.5434 29.7944 37.3013 29.4805 37.86 28.9217C38.4188 28.3629 38.7327 27.6051 38.7327 26.8149C38.7327 26.0247 38.4188 25.2669 37.86 24.7081C37.3013 24.1494 36.5434 23.8355 35.7532 23.8355Z" fill="#1A3D63"/>
</svg>
